<svg width="56" height="30" viewBox="0 0 56 30" fill="none" xmlns="http://www.w3.org/2000/svg">
<path d="M2.92883 13C1.82426 13 0.928833 13.8954 0.928833 15C0.928833 16.1046 1.82426 17 2.92883 17L2.92883 13ZM55.343 16.4142C56.1241 15.6332 56.1241 14.3668 55.343 13.5858L42.6151 0.857875C41.8341 0.0768268 40.5677 0.0768267 39.7867 0.857875C39.0056 1.63892 39.0056 2.90525 39.7867 3.6863L51.1004 15L39.7867 26.3137C39.0056 27.0948 39.0056 28.3611 39.7867 29.1421C40.5677 29.9232 41.8341 29.9232 42.6151 29.1421L55.343 16.4142ZM2.92883 17L53.9288 17L53.9288 13L2.92883 13L2.92883 17Z" fill="white"/>
</svg>
