<svg width="630" height="700" viewBox="0 0 630 700" fill="none" xmlns="http://www.w3.org/2000/svg">
<rect x="35" y="35" width="35" height="35" fill="#186E31"/>
<rect y="35" width="35" height="35" fill="black"/>
<rect width="35" height="35" fill="black"/>
<rect x="35" y="70" width="35" height="35" fill="black"/>
<rect x="35" y="105" width="35" height="35" fill="black"/>
<rect x="35" width="35" height="35" fill="black"/>
<rect x="70" y="70" width="35" height="35" fill="black"/>
<rect x="70" y="175" width="35" height="35" fill="black"/>
<rect x="35" y="210" width="35" height="35" fill="black"/>
<rect x="35" y="245" width="35" height="35" fill="black"/>
<rect x="35" y="280" width="35" height="35" fill="black"/>
<rect x="35" y="315" width="35" height="35" fill="black"/>
<rect x="70" y="350" width="35" height="35" fill="black"/>
<rect x="70" y="385" width="35" height="35" fill="black"/>
<rect x="105" y="420" width="35" height="35" fill="black"/>
<rect x="140" y="455" width="35" height="35" fill="black"/>
<rect x="140" y="490" width="35" height="35" fill="black"/>
<rect x="175" y="525" width="35" height="35" fill="black"/>
<rect x="245" y="560" width="35" height="35" fill="black"/>
<rect x="280" y="595" width="35" height="35" fill="black"/>
<rect x="350" y="630" width="35" height="35" fill="black"/>
<rect x="140" y="175" width="35" height="35" fill="#186E31"/>
<rect x="105" y="210" width="35" height="35" fill="#186E31"/>
<rect x="105" y="245" width="35" height="35" fill="black"/>
<rect x="105" y="280" width="35" height="35" fill="#A41E1F"/>
<rect x="105" y="315" width="35" height="35" fill="#A41E1F"/>
<rect x="140" y="350" width="35" height="35" fill="#A41E1F"/>
<rect x="140" y="385" width="35" height="35" fill="#A41E1F"/>
<rect x="175" y="420" width="35" height="35" fill="#A31D1E"/>
<rect x="210" y="455" width="35" height="35" fill="#A31D1E"/>
<rect x="210" y="490" width="35" height="35" fill="#A31D1E"/>
<rect x="245" y="525" width="35" height="35" fill="#A41D1E"/>
<rect x="315" y="560" width="35" height="35" fill="#A31E1F"/>
<rect x="350" y="595" width="35" height="35" fill="#871417"/>
<rect x="420" y="630" width="35" height="35" fill="#871417"/>
<rect x="420" y="665" width="35" height="35" fill="black"/>
<rect x="210" y="175" width="35" height="35" fill="black"/>
<rect x="175" y="210" width="35" height="35" fill="black"/>
<rect x="175" y="245" width="35" height="35" fill="#C72322"/>
<rect x="175" y="280" width="35" height="35" fill="#C72322"/>
<rect x="175" y="315" width="35" height="35" fill="#C72322"/>
<rect x="210" y="350" width="35" height="35" fill="#C72423"/>
<rect x="210" y="385" width="35" height="35" fill="#C72423"/>
<rect x="245" y="420" width="35" height="35" fill="#C72322"/>
<rect x="280" y="455" width="35" height="35" fill="#C72423"/>
<rect x="280" y="490" width="35" height="35" fill="#C72423"/>
<rect x="315" y="525" width="35" height="35" fill="#C72423"/>
<rect x="385" y="560" width="35" height="35" fill="#C62322"/>
<rect x="420" y="595" width="35" height="35" fill="#871417"/>
<rect x="490" y="630" width="35" height="35" fill="#871417"/>
<rect x="490" y="665" width="35" height="35" fill="black"/>
<rect x="105" y="175" width="35" height="35" fill="#186E31"/>
<rect x="70" y="210" width="35" height="35" fill="#186E31"/>
<rect x="70" y="245" width="35" height="35" fill="black"/>
<rect x="70" y="280" width="35" height="35" fill="#871417"/>
<rect x="70" y="315" width="35" height="35" fill="#871417"/>
<rect x="105" y="350" width="35" height="35" fill="#891419"/>
<rect x="105" y="385" width="35" height="35" fill="#891419"/>
<rect x="140" y="420" width="35" height="35" fill="#A31D1E"/>
<rect x="175" y="455" width="35" height="35" fill="#A31D1E"/>
<rect x="175" y="490" width="35" height="35" fill="#871417"/>
<rect x="210" y="525" width="35" height="35" fill="black"/>
<rect x="280" y="560" width="35" height="35" fill="#A41D1E"/>
<rect x="315" y="595" width="35" height="35" fill="black"/>
<rect x="385" y="630" width="35" height="35" fill="black"/>
<rect x="175" y="175" width="35" height="35" fill="#186E31"/>
<rect x="140" y="210" width="35" height="35" fill="#2A903D"/>
<rect x="140" y="245" width="35" height="35" fill="black"/>
<rect x="140" y="280" width="35" height="35" fill="#C72322"/>
<rect x="140" y="315" width="35" height="35" fill="#C72322"/>
<rect x="175" y="350" width="35" height="35" fill="#C72423"/>
<rect x="175" y="385" width="35" height="35" fill="#C72423"/>
<rect x="210" y="420" width="35" height="35" fill="#C72322"/>
<rect x="245" y="455" width="35" height="35" fill="#C72322"/>
<rect x="245" y="490" width="35" height="35" fill="#A41D1E"/>
<rect x="280" y="525" width="35" height="35" fill="#A41D1E"/>
<rect x="350" y="560" width="35" height="35" fill="#C62322"/>
<rect x="385" y="595" width="35" height="35" fill="#871417"/>
<rect x="455" y="630" width="35" height="35" fill="#871417"/>
<rect x="455" y="665" width="35" height="35" fill="black"/>
<rect x="245" y="175" width="35" height="35" fill="#871418"/>
<rect x="210" y="210" width="35" height="35" fill="#C72322"/>
<rect x="210" y="245" width="35" height="35" fill="#C72322"/>
<rect x="210" y="280" width="35" height="35" fill="#C72322"/>
<rect x="210" y="315" width="35" height="35" fill="#C72322"/>
<rect x="245" y="350" width="35" height="35" fill="#C72423"/>
<rect x="245" y="385" width="35" height="35" fill="#C72423"/>
<rect x="280" y="420" width="35" height="35" fill="#C72322"/>
<rect x="315" y="455" width="35" height="35" fill="#C72423"/>
<rect x="315" y="490" width="35" height="35" fill="#C72423"/>
<rect x="350" y="525" width="35" height="35" fill="#C72423"/>
<rect x="420" y="560" width="35" height="35" fill="#C62322"/>
<rect x="455" y="595" width="35" height="35" fill="#A41D1E"/>
<rect x="525" y="630" width="35" height="35" fill="#871417"/>
<rect x="525" y="665" width="35" height="35" fill="black"/>
<rect x="280" y="210" width="35" height="35" fill="#A41E1F"/>
<rect x="280" y="245" width="35" height="35" fill="#A41E1F"/>
<rect x="280" y="280" width="35" height="35" fill="#ED3229"/>
<rect x="280" y="315" width="35" height="35" fill="#ED3229"/>
<rect x="315" y="350" width="35" height="35" fill="#A71F20"/>
<rect x="315" y="385" width="35" height="35" fill="#ED3229"/>
<rect x="350" y="420" width="35" height="35" fill="#A61E20"/>
<rect x="385" y="455" width="35" height="35" fill="#A61E20"/>
<rect x="385" y="490" width="35" height="35" fill="#ED3229"/>
<rect x="420" y="525" width="35" height="35" fill="#ED3229"/>
<rect x="490" y="560" width="35" height="35" fill="#6F1A19"/>
<rect x="525" y="595" width="35" height="35" fill="#881517"/>
<rect x="280" y="175" width="35" height="35" fill="black"/>
<rect x="245" y="210" width="35" height="35" fill="#C72322"/>
<rect x="245" y="245" width="35" height="35" fill="#ED3229"/>
<rect x="245" y="280" width="35" height="35" fill="#C72322"/>
<rect x="245" y="315" width="35" height="35" fill="#C72322"/>
<rect x="280" y="350" width="35" height="35" fill="#C72322"/>
<rect x="280" y="385" width="35" height="35" fill="#C72322"/>
<rect x="315" y="420" width="35" height="35" fill="#ED3229"/>
<rect x="350" y="455" width="35" height="35" fill="#ED3229"/>
<rect x="350" y="490" width="35" height="35" fill="#C72423"/>
<rect x="385" y="525" width="35" height="35" fill="#C72423"/>
<rect x="455" y="560" width="35" height="35" fill="#ED3229"/>
<rect x="490" y="595" width="35" height="35" fill="#A41D1E"/>
<rect x="560" y="630" width="35" height="35" fill="black"/>
<rect x="315" y="210" width="35" height="35" fill="black"/>
<rect x="315" y="245" width="35" height="35" fill="black"/>
<rect x="315" y="280" width="35" height="35" fill="#A71F20"/>
<rect x="315" y="315" width="35" height="35" fill="#A71F20"/>
<rect x="350" y="350" width="35" height="35" fill="black"/>
<rect x="350" y="385" width="35" height="35" fill="#A61E20"/>
<rect x="385" y="420" width="35" height="35" fill="black"/>
<rect x="420" y="455" width="35" height="35" fill="black"/>
<rect x="420" y="490" width="35" height="35" fill="#A61E20"/>
<rect x="455" y="525" width="35" height="35" fill="#A61E20"/>
<rect x="525" y="560" width="35" height="35" fill="black"/>
<rect x="560" y="595" width="35" height="35" fill="#A41E1F"/>
<rect x="455" y="490" width="35" height="35" fill="black"/>
<rect x="490" y="525" width="35" height="35" fill="black"/>
<rect x="560" y="560" width="35" height="35" fill="black"/>
<rect x="595" y="595" width="35" height="35" fill="black"/>
<rect x="385" y="385" width="35" height="35" fill="black"/>
<rect x="350" y="280" width="35" height="35" fill="black"/>
<rect x="350" y="315" width="35" height="35" fill="black"/>
<rect x="70" y="105" width="35" height="35" fill="#2A903D"/>
<rect x="175" y="105" width="35" height="35" fill="black"/>
<rect x="105" y="105" width="35" height="35" fill="black"/>
<rect x="210" y="105" width="35" height="35" fill="black"/>
<rect x="70" y="35" width="35" height="35" fill="black"/>
<rect x="70" y="140" width="35" height="35" fill="black"/>
<rect x="140" y="140" width="35" height="35" fill="black"/>
<rect x="210" y="140" width="35" height="35" fill="#2A903D"/>
<rect x="105" y="140" width="35" height="35" fill="#186E31"/>
<rect x="175" y="140" width="35" height="35" fill="#186E31"/>
<rect x="245" y="140" width="35" height="35" fill="black"/>
</svg>
